<svg width="18" height="18" viewBox="0 0 18 18" fill="none" xmlns="http://www.w3.org/2000/svg">
<path d="M15.75 5.8125H2.25C1.9425 5.8125 1.6875 5.5575 1.6875 5.25C1.6875 4.9425 1.9425 4.6875 2.25 4.6875H15.75C16.0575 4.6875 16.3125 4.9425 16.3125 5.25C16.3125 5.5575 16.0575 5.8125 15.75 5.8125Z" fill="white"/>
<path d="M15.75 9.5625H2.25C1.9425 9.5625 1.6875 9.3075 1.6875 9C1.6875 8.6925 1.9425 8.4375 2.25 8.4375H15.75C16.0575 8.4375 16.3125 8.6925 16.3125 9C16.3125 9.3075 16.0575 9.5625 15.75 9.5625Z" fill="white"/>
<path d="M15.75 13.3125H2.25C1.9425 13.3125 1.6875 13.0575 1.6875 12.75C1.6875 12.4425 1.9425 12.1875 2.25 12.1875H15.75C16.0575 12.1875 16.3125 12.4425 16.3125 12.75C16.3125 13.0575 16.0575 13.3125 15.75 13.3125Z" fill="white"/>
</svg>
